{
  "accessors": [
    {
      "bufferView": 2,
      "componentType": 5126,
      "count": 994,
      "max": [
        0.9958174228668213,
        1.0090351104736328,
        1.0148193836212158
      ],
      "min": [
        -1.018481969833374,
        -1.0090351104736328,
        -1.0157185792922974
      ],
      "type": "VEC3"
    },
    {
      "bufferView": 2,
      "byteOffset": 11928,
      "componentType": 5126,
      "count": 994,
      "max": [
        1.0,
        1.0,
        1.0
      ],
      "min": [
        -1.0,
        -1.0,
        -1.0
      ],
      "type": "VEC3"
    },
    {
      "bufferView": 3,
      "componentType": 5126,
      "count": 994,
      "max": [
        0.9638223648071289,
        0.9877427816390991,
        0.999991774559021,
        1.0
      ],
      "min": [
        -0.9921284914016724,
        -0.9877421855926514,
        -0.9999974966049194,
        1.0
      ],
      "type": "VEC4"
    },
    {
      "bufferView": 1,
      "componentType": 5126,
      "count": 994,
      "max": [
        0.977072536945343,
        0.9764041900634766
      ],
      "min": [
        0.014397740364074707,
        0.014511406421661377
      ],
      "type": "VEC2"
    },
    {
      "bufferView": 0,
      "componentType": 5125,
      "count": 3756,
      "type": "SCALAR"
    },
    {
      "bufferView": 2,
      "byteOffset": 23856,
      "componentType": 5126,
      "count": 312,
      "max": [
        1.080692172050476,
        1.0713729858398438,
        0.6074290871620178
      ],
      "min": [
        -1.0879971981048584,
        -1.0926685333251953,
        -0.6555940508842468
      ],
      "type": "VEC3"
    },
    {
      "bufferView": 2,
      "byteOffset": 27600,
      "componentType": 5126,
      "count": 312,
      "max": [
        0.9850591421127319,
        0.9995406270027161,
        0.9999960660934448
      ],
      "min": [
        -0.9889402389526367,
        -0.9997827410697937,
        -0.999869704246521
      ],
      "type": "VEC3"
    },
    {
      "bufferView": 3,
      "byteOffset": 15904,
      "componentType": 5126,
      "count": 312,
      "max": [
        0.9999475479125977,
        0.9729833602905273,
        0.9983431100845337,
        1.0
      ],
      "min": [
        -0.9997718334197998,
        -0.9899153709411621,
        -0.9997101426124573,
        1.0
      ],
      "type": "VEC4"
    },
    {
      "bufferView": 1,
      "byteOffset": 7952,
      "componentType": 5126,
      "count": 312,
      "max": [
        0.9574620723724365,
        0.9854885935783386
      ],
      "min": [
        0.014397740364074707,
        0.0150565505027771
      ],
      "type": "VEC2"
    },
    {
      "bufferView": 0,
      "byteOffset": 15024,
      "componentType": 5125,
      "count": 1158,
      "type": "SCALAR"
    }
  ],
  "asset": {
    "extras": {
      "author": "Sir Erdees (https://sketchfab.com/sirerdees)",
      "license": "CC-BY-4.0 (http://creativecommons.org/licenses/by/4.0/)",
      "source": "https://sketchfab.com/3d-models/pumpkin-halloween-face-2d9369a0f2e847bb99803ab8709fd04b",
      "title": "Pumpkin Halloween Face"
    },
    "generator": "Sketchfab-14.32.1",
    "version": "2.0"
  },
  "bufferViews": [
    {
      "buffer": 0,
      "byteLength": 19656,
      "name": "floatBufferViews",
      "target": 34963
    },
    {
      "buffer": 0,
      "byteLength": 10448,
      "byteOffset": 19656,
      "byteStride": 8,
      "name": "floatBufferViews",
      "target": 34962
    },
    {
      "buffer": 0,
      "byteLength": 31344,
      "byteOffset": 30104,
      "byteStride": 12,
      "name": "floatBufferViews",
      "target": 34962
    },
    {
      "buffer": 0,
      "byteLength": 20896,
      "byteOffset": 61448,
      "byteStride": 16,
      "name": "floatBufferViews",
      "target": 34962
    }
  ],
  "buffers": [
    {
      "byteLength": 82344,
      "uri": "scene.bin"
    }
  ],
  "images": [
    {
      "uri": "textures/pumpkin_face_txtr_baseColor.png"
    },
    {
      "uri": "textures/pumpkin_face_txtr_metallicRoughness.png"
    },
    {
      "uri": "textures/pumpkin_face_txtr_emissive.png"
    },
    {
      "uri": "textures/pumpkin_face_txtr_normal.png"
    }
  ],
  "materials": [
    {
      "doubleSided": true,
      "emissiveFactor": [
        1.0,
        1.0,
        1.0
      ],
      "emissiveTexture": {
        "index": 2
      },
      "name": "pumpkin_face_txtr",
      "normalTexture": {
        "index": 3
      },
      "pbrMetallicRoughness": {
        "baseColorTexture": {
          "index": 0
        },
        "metallicRoughnessTexture": {
          "index": 1
        }
      }
    }
  ],
  "meshes": [
    {
      "name": "z_face_low.001_pumpkin_face_txtr_0",
      "primitives": [
        {
          "attributes": {
            "NORMAL": 1,
            "POSITION": 0,
            "TANGENT": 2,
            "TEXCOORD_0": 3
          },
          "indices": 4,
          "material": 0,
          "mode": 4
        }
      ]
    },
    {
      "name": "z_hat_low.001_pumpkin_face_txtr_0",
      "primitives": [
        {
          "attributes": {
            "NORMAL": 6,
            "POSITION": 5,
            "TANGENT": 7,
            "TEXCOORD_0": 8
          },
          "indices": 9,
          "material": 0,
          "mode": 4
        }
      ]
    }
  ],
  "nodes": [
    {
      "children": [
        1
      ],
      "matrix": [
        0.2857787609100342,
        0.0,
        0.0,
        0.0,
        0.0,
        6.345563206223352e-17,
        -0.2857787609100342,
        0.0,
        0.0,
        0.2857787609100342,
        6.345563206223352e-17,
        0.0,
        0.0,
        0.0,
        0.0,
        1.0
      ],
      "name": "Sketchfab_model"
    },
    {
      "children": [
        2
      ],
      "matrix": [
        0.009999999776482582,
        0.0,
        0.0,
        0.0,
        0.0,
        0.0,
        0.009999999776482582,
        0.0,
        0.0,
        -0.009999999776482582,
        0.0,
        0.0,
        0.0,
        0.0,
        0.0,
        1.0
      ],
      "name": "pumpin_stream_scene.fbx"
    },
    {
      "children": [
        3,
        5
      ],
      "name": "RootNode"
    },
    {
      "children": [
        4
      ],
      "matrix": [
        98.83972377514465,
        -15.18910807299444,
        0.0,
        0.0,
        -6.639370289662772e-07,
        -4.3204217092807085e-06,
        -99.9999999999999,
        0.0,
        15.189108072994422,
        98.83972377514455,
        -4.371139006309477e-06,
        0.0,
        0.0,
        0.0,
        0.0,
        1.0
      ],
      "name": "z_face_low.001"
    },
    {
      "mesh": 0,
      "name": "z_face_low.001_pumpkin_face_txtr_0"
    },
    {
      "children": [
        6
      ],
      "matrix": [
        99.54824276265693,
        -3.9766608127465757,
        -8.621601113983377,
        0.0,
        -8.896485670367724,
        -7.350283006797786,
        -99.33188992744512,
        0.0,
        3.316380512730018,
        99.65017803607527,
        -7.670861215954784,
        0.0,
        2.0914885997772217,
        142.34747314453125,
        -8.514248847961426,
        1.0
      ],
      "name": "z_hat_low.001"
    },
    {
      "mesh": 1,
      "name": "z_hat_low.001_pumpkin_face_txtr_0"
    }
  ],
  "samplers": [
    {
      "magFilter": 9729,
      "minFilter": 9987,
      "wrapS": 10497,
      "wrapT": 10497
    }
  ],
  "scene": 0,
  "scenes": [
    {
      "name": "Sketchfab_Scene",
      "nodes": [
        0
      ]
    }
  ],
  "textures": [
    {
      "sampler": 0,
      "source": 0
    },
    {
      "sampler": 0,
      "source": 1
    },
    {
      "sampler": 0,
      "source": 2
    },
    {
      "sampler": 0,
      "source": 3
    }
  ]
}
