{
  "accessors": [
    {
      "bufferView": 2,
      "componentType": 5126,
      "count": 1190,
      "max": [
        275.5293884277344,
        945.8999633789063,
        37.84992599487305
      ],
      "min": [
        -261.66650390625,
        53.02971649169922,
        -45.64762878417969
      ],
      "type": "VEC3"
    },
    {
      "bufferView": 2,
      "byteOffset": 14280,
      "componentType": 5126,
      "count": 1190,
      "max": [
        0.9999912977218628,
        1.0,
        1.0
      ],
      "min": [
        -0.9999912977218628,
        -1.0,
        -1.0
      ],
      "type": "VEC3"
    },
    {
      "bufferView": 3,
      "componentType": 5126,
      "count": 1190,
      "max": [
        1.0,
        0.999991238117218,
        0.3239046633243561,
        1.0
      ],
      "min": [
        -1.0,
        -0.13799543678760529,
        -0.323882132768631,
        -1.0
      ],
      "type": "VEC4"
    },
    {
      "bufferView": 1,
      "componentType": 5126,
      "count": 1190,
      "max": [
        0.9516840577125549,
        0.9578642845153809
      ],
      "min": [
        0.041551828384399414,
        0.0112481489777565
      ],
      "type": "VEC2"
    },
    {
      "bufferView": 0,
      "componentType": 5125,
      "count": 6144,
      "type": "SCALAR"
    },
    {
      "bufferView": 2,
      "byteOffset": 28560,
      "componentType": 5126,
      "count": 5278,
      "max": [
        374.9852294921875,
        4.805469512939453,
        34.584320068359375
      ],
      "min": [
        -3.364264965057373,
        -817.7536010742188,
        -30.669641494750977
      ],
      "type": "VEC3"
    },
    {
      "bufferView": 2,
      "byteOffset": 91896,
      "componentType": 5126,
      "count": 5278,
      "max": [
        1.0,
        1.0,
        1.0
      ],
      "min": [
        -1.0,
        -1.0,
        -1.0
      ],
      "type": "VEC3"
    },
    {
      "bufferView": 3,
      "byteOffset": 19040,
      "componentType": 5126,
      "count": 5278,
      "max": [
        1.0,
        0.99775630235672,
        1.0,
        1.0
      ],
      "min": [
        -1.0,
        -0.7814710140228271,
        -1.0,
        -1.0
      ],
      "type": "VEC4"
    },
    {
      "bufferView": 1,
      "byteOffset": 9520,
      "componentType": 5126,
      "count": 5278,
      "max": [
        0.9876396059989929,
        0.9741877317428589
      ],
      "min": [
        0.31474727392196655,
        0.30751508474349976
      ],
      "type": "VEC2"
    },
    {
      "bufferView": 0,
      "byteOffset": 24576,
      "componentType": 5125,
      "count": 24984,
      "type": "SCALAR"
    },
    {
      "bufferView": 4,
      "componentType": 5126,
      "count": 78,
      "max": [
        1.625
      ],
      "min": [
        0.0
      ],
      "type": "SCALAR"
    },
    {
      "bufferView": 5,
      "componentType": 5126,
      "count": 78,
      "max": [
        -5.760115939779098e-08,
        0.7071067094802856,
        5.760115229236362e-08,
        1.0
      ],
      "min": [
        -8.146033536604591e-08,
        -0.0,
        0.0,
        0.7071068286895752
      ],
      "type": "VEC4"
    }
  ],
  "animations": [
    {
      "channels": [
        {
          "sampler": 0,
          "target": {
            "node": 6,
            "path": "rotation"
          }
        }
      ],
      "name": "Cube.004|Cube.004Action",
      "samplers": [
        {
          "input": 10,
          "interpolation": "LINEAR",
          "output": 11
        }
      ]
    }
  ],
  "asset": {
    "extras": {
      "author": "HASSAN (https://sketchfab.com/7ASSAN)",
      "license": "CC-BY-4.0 (http://creativecommons.org/licenses/by/4.0/)",
      "source": "https://sketchfab.com/3d-models/medieval-door-581dc6a53d2d4cafb5f781127f137c6f",
      "title": "medieval_door"
    },
    "generator": "Sketchfab-16.12.0",
    "version": "2.0"
  },
  "bufferViews": [
    {
      "buffer": 0,
      "byteLength": 124512,
      "name": "floatBufferViews",
      "target": 34963
    },
    {
      "buffer": 0,
      "byteLength": 51744,
      "byteOffset": 124512,
      "byteStride": 8,
      "name": "floatBufferViews",
      "target": 34962
    },
    {
      "buffer": 0,
      "byteLength": 155232,
      "byteOffset": 176256,
      "byteStride": 12,
      "name": "floatBufferViews",
      "target": 34962
    },
    {
      "buffer": 0,
      "byteLength": 103488,
      "byteOffset": 331488,
      "byteStride": 16,
      "name": "floatBufferViews",
      "target": 34962
    },
    {
      "buffer": 0,
      "byteLength": 312,
      "byteOffset": 434976,
      "name": "floatBufferViews"
    },
    {
      "buffer": 0,
      "byteLength": 1248,
      "byteOffset": 435288,
      "byteStride": 16,
      "name": "floatBufferViews"
    }
  ],
  "buffers": [
    {
      "byteLength": 436536,
      "uri": "scene.bin"
    }
  ],
  "images": [
    {
      "uri": "textures/RootNode_baseColor.jpeg"
    },
    {
      "uri": "textures/RootNode_metallicRoughness.png"
    },
    {
      "uri": "textures/RootNode_normal.png"
    }
  ],
  "materials": [
    {
      "doubleSided": true,
      "name": "RootNode",
      "normalTexture": {
        "index": 2
      },
      "occlusionTexture": {
        "index": 1
      },
      "pbrMetallicRoughness": {
        "baseColorTexture": {
          "index": 0
        },
        "metallicRoughnessTexture": {
          "index": 1
        }
      }
    }
  ],
  "meshes": [
    {
      "name": "Cube.000__0",
      "primitives": [
        {
          "attributes": {
            "NORMAL": 1,
            "POSITION": 0,
            "TANGENT": 2,
            "TEXCOORD_0": 3
          },
          "indices": 4,
          "material": 0,
          "mode": 4
        }
      ]
    },
    {
      "name": "Cube.004__0",
      "primitives": [
        {
          "attributes": {
            "NORMAL": 6,
            "POSITION": 5,
            "TANGENT": 7,
            "TEXCOORD_0": 8
          },
          "indices": 9,
          "material": 0,
          "mode": 4
        }
      ]
    }
  ],
  "nodes": [
    {
      "children": [
        1
      ],
      "matrix": [
        1.0,
        0.0,
        0.0,
        0.0,
        0.0,
        2.220446049250313e-16,
        -1.0,
        0.0,
        0.0,
        1.0,
        2.220446049250313e-16,
        0.0,
        0.0,
        0.0,
        0.0,
        1.0
      ],
      "name": "Sketchfab_model"
    },
    {
      "children": [
        2
      ],
      "matrix": [
        1.0,
        0.0,
        0.0,
        0.0,
        0.0,
        0.0,
        1.0,
        0.0,
        0.0,
        -1.0,
        0.0,
        0.0,
        0.0,
        0.0,
        0.0,
        1.0
      ],
      "name": "a3991224f78d4dbebb59bb5f8b21aa8b.fbx"
    },
    {
      "children": [
        3
      ],
      "name": "Object_2"
    },
    {
      "children": [
        4,
        6
      ],
      "name": "RootNode"
    },
    {
      "children": [
        5
      ],
      "name": "Cube.000",
      "rotation": [
        -8.146033536604591e-08,
        -0.0,
        0.0,
        1.0
      ],
      "translation": [
        0.0,
        -47.7620849609375,
        -1.5074656009674072
      ]
    },
    {
      "mesh": 0,
      "name": "Cube.000__0"
    },
    {
      "children": [
        7
      ],
      "name": "Cube.004",
      "rotation": [
        -8.146033536604591e-08,
        -0.0,
        0.0,
        1.0
      ],
      "translation": [
        -179.0237274169922,
        821.632080078125,
        -43.82219314575195
      ]
    },
    {
      "mesh": 1,
      "name": "Cube.004__0"
    }
  ],
  "samplers": [
    {
      "magFilter": 9729,
      "minFilter": 9987,
      "wrapS": 10497,
      "wrapT": 10497
    }
  ],
  "scene": 0,
  "scenes": [
    {
      "name": "Sketchfab_Scene",
      "nodes": [
        0
      ]
    }
  ],
  "textures": [
    {
      "sampler": 0,
      "source": 0
    },
    {
      "sampler": 0,
      "source": 1
    },
    {
      "sampler": 0,
      "source": 2
    }
  ]
}
