{
  "accessors": [
    {
      "bufferView": 3,
      "componentType": 5126,
      "count": 3977,
      "max": [
        4.9140849113464355,
        9.061505317687988,
        2.7357964515686035
      ],
      "min": [
        -9.068305969238281,
        0.10492552071809769,
        -3.6686296463012695
      ],
      "type": "VEC3"
    },
    {
      "bufferView": 3,
      "byteOffset": 47724,
      "componentType": 5126,
      "count": 3977,
      "max": [
        0.9991803169250488,
        0.9999934434890747,
        1.0
      ],
      "min": [
        -0.9991766810417175,
        -0.9999999403953552,
        -0.9988473653793335
      ],
      "type": "VEC3"
    },
    {
      "bufferView": 2,
      "componentType": 5126,
      "count": 3977,
      "max": [
        0.989501953125,
        -0.0026865005493164063
      ],
      "min": [
        0.0041522979736328125,
        -0.992431640625
      ],
      "type": "VEC2"
    },
    {
      "bufferView": 1,
      "componentType": 5125,
      "count": 19206,
      "type": "SCALAR"
    },
    {
      "bufferView": 5,
      "componentType": 5126,
      "count": 32,
      "max": [
        100.0,
        0.6083086133003235,
        0.8512327671051025,
        0.0,
        0.28133079409599304,
        100.0,
        0.6240654587745667,
        0.0,
        0.9998212456703186,
        0.28965646028518677,
        100.0,
        0.0,
        7.579021453857422,
        3.971224069595337,
        4.71054220199585,
        1.0
      ],
      "min": [
        -0.9581204056739807,
        -0.27384868264198303,
        -0.000651925744023174,
        0.0,
        -0.28131765127182007,
        -0.9999999403953552,
        -0.6240713000297546,
        0.0,
        -0.999821126461029,
        -0.2896559536457062,
        -1.000000238418579,
        0.0,
        -1.5615228414535522,
        -7.725976467132568,
        -4.710529327392578,
        1.0
      ],
      "type": "MAT4"
    },
    {
      "bufferView": 0,
      "componentType": 5123,
      "count": 3977,
      "type": "VEC4"
    },
    {
      "bufferView": 4,
      "componentType": 5126,
      "count": 3977,
      "max": [
        1.0,
        0.49803921580314636,
        0.2666666805744171,
        0.08235294371843338
      ],
      "min": [
        0.38823530077934265,
        0.0,
        0.0,
        0.0
      ],
      "type": "VEC4"
    }
  ],
  "asset": {
    "extras": {
      "author": "Brawl2024. (https://sketchfab.com/Brawl2023.)",
      "license": "CC-BY-4.0 (http://creativecommons.org/licenses/by/4.0/)",
      "source": "https://sketchfab.com/3d-models/toon-spike-42fe2c6ed94645e2a80ec90b3a9756e3",
      "title": "Toon Spike"
    },
    "generator": "Sketchfab-15.83.0",
    "version": "2.0"
  },
  "bufferViews": [
    {
      "buffer": 0,
      "byteLength": 31816,
      "byteStride": 8,
      "name": "shortBufferViews",
      "target": 34962
    },
    {
      "buffer": 0,
      "byteLength": 76824,
      "byteOffset": 31816,
      "name": "floatBufferViews",
      "target": 34963
    },
    {
      "buffer": 0,
      "byteLength": 31816,
      "byteOffset": 108640,
      "byteStride": 8,
      "name": "floatBufferViews",
      "target": 34962
    },
    {
      "buffer": 0,
      "byteLength": 95448,
      "byteOffset": 140456,
      "byteStride": 12,
      "name": "floatBufferViews",
      "target": 34962
    },
    {
      "buffer": 0,
      "byteLength": 63632,
      "byteOffset": 235904,
      "byteStride": 16,
      "name": "floatBufferViews",
      "target": 34962
    },
    {
      "buffer": 0,
      "byteLength": 2048,
      "byteOffset": 299536,
      "name": "floatBufferViews"
    }
  ],
  "buffers": [
    {
      "byteLength": 301584,
      "uri": "scene.bin"
    }
  ],
  "images": [
    {
      "uri": "textures/character_mat_baseColor.jpeg"
    }
  ],
  "materials": [
    {
      "doubleSided": true,
      "name": "character_mat",
      "pbrMetallicRoughness": {
        "baseColorTexture": {
          "index": 0
        },
        "metallicFactor": 0.0,
        "roughnessFactor": 0.6
      }
    }
  ],
  "meshes": [
    {
      "name": "character_GEO_001_character_mat_0",
      "primitives": [
        {
          "attributes": {
            "JOINTS_0": 5,
            "NORMAL": 1,
            "POSITION": 0,
            "TEXCOORD_0": 2,
            "WEIGHTS_0": 6
          },
          "indices": 3,
          "material": 0,
          "mode": 4
        }
      ]
    }
  ],
  "nodes": [
    {
      "children": [
        1
      ],
      "matrix": [
        1.0,
        0.0,
        0.0,
        0.0,
        0.0,
        2.220446049250313e-16,
        -1.0,
        0.0,
        0.0,
        1.0,
        2.220446049250313e-16,
        0.0,
        0.0,
        0.0,
        0.0,
        1.0
      ],
      "name": "Sketchfab_model"
    },
    {
      "children": [
        2
      ],
      "matrix": [
        0.009999999776482582,
        0.0,
        0.0,
        0.0,
        0.0,
        0.0,
        0.009999999776482582,
        0.0,
        0.0,
        -0.009999999776482582,
        0.0,
        0.0,
        0.0,
        0.0,
        0.0,
        1.0
      ],
      "name": "4b83ff0af9bd409bba1e03eaaeacad8c.fbx"
    },
    {
      "children": [
        3,
        5
      ],
      "name": "RootNode"
    },
    {
      "children": [
        4
      ],
      "matrix": [
        -0.006282007014820845,
        -0.019022941347284723,
        -0.9997993119073265,
        0.0,
        -0.00011952387913315675,
        0.9998190474793415,
        -0.01902256585070878,
        0.0,
        0.9999802608561372,
        -2.1684043449710089e-16,
        -0.006283143965559068,
        0.0,
        -134.0604705810547,
        492.89691162109375,
        1903.640380859375,
        1.0
      ],
      "name": "CINEMA_4D_Editor"
    },
    {
      "name": "Object_4"
    },
    {
      "children": [
        6
      ],
      "matrix": [
        100.0,
        0.0,
        0.0,
        0.0,
        0.0,
        2.220446049250313e-14,
        -100.0,
        0.0,
        0.0,
        100.0,
        2.220446049250313e-14,
        0.0,
        0.0,
        0.0,
        0.0,
        1.0
      ],
      "name": "Toon_Spike"
    },
    {
      "children": [
        7
      ],
      "matrix": [
        0.009999999776482582,
        0.0,
        0.0,
        0.0,
        0.0,
        2.2204459996194763e-18,
        0.009999999776482582,
        0.0,
        0.0,
        -0.009999999776482582,
        2.2204459996194763e-18,
        0.0,
        0.0,
        0.0,
        0.0,
        1.0
      ],
      "name": "Root"
    },
    {
      "children": [
        8,
        41,
        40
      ],
      "name": "Object_7"
    },
    {
      "children": [
        9
      ],
      "name": "_rootJoint"
    },
    {
      "children": [
        10,
        38
      ],
      "name": "Root_2_01",
      "rotation": [
        0.0,
        -0.0,
        -1.2904783908140871e-08,
        1.0
      ],
      "scale": [
        100.0,
        100.0,
        100.0
      ]
    },
    {
      "children": [
        11,
        30,
        34
      ],
      "name": "hips_s_02",
      "rotation": [
        -6.207759218069607e-33,
        3.6982203965862936e-09,
        -1.6543612251060553e-24,
        1.0
      ],
      "translation": [
        2.7788689127561383e-09,
        2.301503896713257,
        -0.08118902891874313
      ]
    },
    {
      "children": [
        12
      ],
      "name": "spine_lower_s_03",
      "rotation": [
        0.010447596199810505,
        9.487174423838951e-08,
        -9.912356491170726e-10,
        0.9999455213546753
      ],
      "scale": [
        1.0,
        1.0000001192092896,
        0.9999999403953552
      ],
      "translation": [
        -1.4961811789504509e-09,
        0.17534637451171875,
        0.035949140787124634
      ]
    },
    {
      "children": [
        13
      ],
      "name": "spine_mid_s_04",
      "rotation": [
        -0.015350560657680035,
        -6.936699037396465e-08,
        -1.0649475745694303e-09,
        0.9998822808265686
      ],
      "scale": [
        1.0,
        0.9999999403953552,
        0.9999999403953552
      ],
      "translation": [
        -3.6819374216179312e-09,
        0.29436299204826355,
        0.015916883945465088
      ]
    },
    {
      "children": [
        14
      ],
      "name": "spine_upper_s_05",
      "rotation": [
        -0.004945606924593449,
        -5.414091841515756e-09,
        -2.6776239211989683e-11,
        0.999987781047821
      ],
      "scale": [
        1.0,
        1.0,
        0.9999999403953552
      ],
      "translation": [
        -2.709237556519639e-10,
        0.3313993513584137,
        0.0029259459115564823
      ]
    },
    {
      "children": [
        15,
        18,
        24
      ],
      "name": "chest_s_06",
      "rotation": [
        0.009848784655332565,
        -1.9200877332536948e-08,
        1.8911475163641e-10,
        0.9999516010284424
      ],
      "translation": [
        -5.385749624053915e-10,
        0.2973219156265259,
        0.006595741957426071
      ]
    },
    {
      "children": [
        16
      ],
      "name": "neck_s_07",
      "rotation": [
        6.621818345282767e-24,
        9.231955755417687e-10,
        -4.737549572583133e-18,
        1.0
      ],
      "translation": [
        4.36153380078963e-09,
        1.0046055316925049,
        -0.10075557231903076
      ]
    },
    {
      "children": [
        17
      ],
      "name": "head_s_08",
      "rotation": [
        5.710595107899508e-09,
        -7.935077483978148e-09,
        8.603436729737076e-17,
        1.0
      ],
      "translation": [
        6.115614681334591e-09,
        0.7125898003578186,
        -0.13549403846263885
      ]
    },
    {
      "name": "hat_01_s_09",
      "rotation": [
        -0.0005663125775754452,
        1.5849268564238628e-08,
        8.975559878665607e-12,
        0.9999999403953552
      ],
      "translation": [
        -0.015103086829185486,
        2.608926296234131,
        0.04666382446885109
      ]
    },
    {
      "children": [
        19
      ],
      "name": "L_clavicle_s_010",
      "rotation": [
        5.504011912904616e-09,
        2.0508121423290504e-08,
        -2.18118249872483e-16,
        1.0
      ],
      "translation": [
        0.07973968237638474,
        0.5716016888618469,
        -0.3525291383266449
      ]
    },
    {
      "children": [
        20,
        23
      ],
      "name": "L_shoulder_s_011",
      "rotation": [
        0.6722808480262756,
        0.2210177481174469,
        0.6669185161590576,
        -0.23325830698013306
      ],
      "scale": [
        1.0000005960464478,
        1.0,
        0.9999997615814209
      ],
      "translation": [
        2.704345464706421,
        0.12701182067394257,
        0.002727050334215164
      ]
    },
    {
      "children": [
        21,
        22
      ],
      "name": "L_elbow_s_012",
      "rotation": [
        0.010249024257063866,
        -0.0016155351186171174,
        -0.15575438737869263,
        0.9877413511276245
      ],
      "scale": [
        1.0,
        1.0,
        1.0000001192092896
      ],
      "translation": [
        2.8791982131792793e-08,
        1.2753567695617676,
        4.525072654359974e-06
      ]
    },
    {
      "name": "L_forearm_twist_s_013",
      "rotation": [
        -6.15836910355938e-08,
        2.665911758015227e-08,
        3.279345865293674e-15,
        1.0
      ],
      "scale": [
        1.0,
        1.0000001192092896,
        1.0
      ],
      "translation": [
        1.1322555337756057e-07,
        0.31055524945259094,
        -3.866728377488471e-07
      ]
    },
    {
      "name": "L_wrist_s_014",
      "rotation": [
        -0.08151013404130936,
        0.05204760283231735,
        0.061603132635354996,
        0.9934044480323792
      ],
      "scale": [
        0.9999999403953552,
        1.000000238418579,
        1.0
      ],
      "translation": [
        2.502698066564335e-07,
        0.9316660761833191,
        -8.730954448310513e-08
      ]
    },
    {
      "name": "L_shoulder_twist_s_015",
      "rotation": [
        3.7277860798212714e-08,
        2.907472484992013e-08,
        -1.0536719941001138e-08,
        1.0
      ],
      "scale": [
        1.0,
        1.0000001192092896,
        1.0000001192092896
      ],
      "translation": [
        2.267056586902072e-08,
        0.03999955207109451,
        -6.416591702418373e-08
      ]
    },
    {
      "children": [
        25
      ],
      "name": "R_clavicle_s_016",
      "rotation": [
        1.0,
        7.450577044210149e-09,
        7.54978870531886e-08,
        4.371138118131057e-08
      ],
      "translation": [
        -0.07973968237638474,
        0.5716031193733215,
        -0.35252904891967773
      ]
    },
    {
      "children": [
        26,
        29
      ],
      "name": "R_shoulder_s_017",
      "rotation": [
        0.6722806692123413,
        0.22101786732673645,
        0.6669183969497681,
        -0.23325881361961365
      ],
      "scale": [
        1.0000007152557373,
        1.0000001192092896,
        0.9999998211860657
      ],
      "translation": [
        -2.704350233078003,
        -0.12700991332530975,
        -0.002727309474721551
      ]
    },
    {
      "children": [
        27,
        28
      ],
      "name": "R_elbow_s_018",
      "rotation": [
        0.010250706225633621,
        -0.001614171895198524,
        -0.1557546854019165,
        0.9877413511276245
      ],
      "scale": [
        0.9999999403953552,
        0.9999998807907104,
        0.9999997615814209
      ],
      "translation": [
        -6.604549440680785e-08,
        -1.2753503322601318,
        -3.9510964597866405e-06
      ]
    },
    {
      "name": "R_forearm_twist_s_019",
      "rotation": [
        3.568127482367345e-08,
        1.4435497242004658e-08,
        1.4901166522918174e-08,
        1.0
      ],
      "scale": [
        1.0000001192092896,
        1.0,
        1.0000001192092896
      ],
      "translation": [
        -2.3819035632755003e-08,
        -0.3105555772781372,
        7.807599189391112e-08
      ]
    },
    {
      "name": "R_wrist_s_020",
      "rotation": [
        -0.08151354640722275,
        0.052045419812202454,
        0.061604056507349014,
        0.9934041500091553
      ],
      "scale": [
        1.0,
        1.0000001192092896,
        1.0000001192092896
      ],
      "translation": [
        -3.396779391096061e-07,
        -0.9316664338111877,
        4.0815248780745605e-07
      ]
    },
    {
      "name": "R_shoulder_twist_s_021",
      "rotation": [
        8.96718574949773e-08,
        1.8510043275909993e-08,
        -4.0815040657936254e-15,
        1.0
      ],
      "scale": [
        0.9999999403953552,
        0.9999998211860657,
        0.9999998211860657
      ],
      "translation": [
        3.424078443003964e-07,
        -0.040000561624765396,
        6.326220614027989e-07
      ]
    },
    {
      "children": [
        31
      ],
      "name": "L_upperLeg_s_022",
      "rotation": [
        0.020720405504107475,
        0.043681550770998,
        0.9885109066963196,
        -0.14320890605449677
      ],
      "scale": [
        1.0000029802322388,
        1.0,
        1.000000238418579
      ],
      "translation": [
        1.0126739740371704,
        -0.2152698040008545,
        3.9055489509109975e-08
      ]
    },
    {
      "children": [
        32
      ],
      "name": "L_lowerLeg_s_023",
      "rotation": [
        -0.2577846944332123,
        1.2780621716501628e-07,
        -5.4605610699809404e-08,
        0.9662024974822998
      ],
      "scale": [
        0.9999999403953552,
        0.9999998807907104,
        0.9999999403953552
      ],
      "translation": [
        8.952338248491287e-08,
        0.7416609525680542,
        -2.2351741790771484e-08
      ]
    },
    {
      "children": [
        33
      ],
      "name": "L_ankle_s_024",
      "rotation": [
        0.00010025798110291362,
        -0.21466779708862305,
        0.9766790866851807,
        0.003965941723436117
      ],
      "scale": [
        0.9999999403953552,
        0.9999998211860657,
        1.000000238418579
      ],
      "translation": [
        2.6077525916434752e-08,
        0.855866014957428,
        -9.399024492040553e-08
      ]
    },
    {
      "name": "L_toes_s_025",
      "rotation": [
        0.00256115454249084,
        0.7071560025215149,
        0.7070482969284058,
        -0.0025616507045924664
      ],
      "scale": [
        1.0,
        0.9999993443489075,
        1.0000003576278687
      ],
      "translation": [
        0.0019390491070225835,
        -0.4942030906677246,
        0.6879971623420715
      ]
    },
    {
      "children": [
        35
      ],
      "name": "R_upperLeg_s_026",
      "rotation": [
        0.14321593940258026,
        0.9885098338127136,
        -0.043682049959897995,
        0.02072167582809925
      ],
      "scale": [
        1.0,
        0.9999996423721313,
        1.0
      ],
      "translation": [
        -1.0126700401306152,
        -0.21526789665222168,
        -6.015052633756568e-08
      ]
    },
    {
      "children": [
        36
      ],
      "name": "R_lowerLeg_s_027",
      "rotation": [
        -0.2577840983867645,
        1.2467079613998067e-05,
        -1.173452073999215e-05,
        0.9662025570869446
      ],
      "scale": [
        1.0,
        0.9999998211860657,
        1.0000001192092896
      ],
      "translation": [
        -7.345806807279587e-08,
        -0.7416602373123169,
        -5.774199962615967e-08
      ]
    },
    {
      "children": [
        37
      ],
      "name": "R_ankle_s_00",
      "rotation": [
        8.42617591843009e-05,
        -0.2146676629781723,
        0.976679265499115,
        0.003948626108467579
      ],
      "scale": [
        0.9999998807907104,
        0.9999997019767761,
        1.0000005960464478
      ],
      "translation": [
        6.329904067570169e-08,
        -0.8558709621429443,
        6.875954916552018e-09
      ]
    },
    {
      "name": "R_toes_s_028",
      "rotation": [
        0.0025624732952564955,
        0.7071555852890015,
        0.7070488333702087,
        -0.00255306763574481
      ],
      "scale": [
        1.0000001192092896,
        0.9999992847442627,
        1.0000014305114746
      ],
      "translation": [
        -0.0019169346196576953,
        0.49420371651649475,
        -0.6879957914352417
      ]
    },
    {
      "children": [
        39
      ],
      "name": "ammo_01_s_029",
      "rotation": [
        -1.694342444125141e-10,
        1.680167116546727e-10,
        2.8464477181254495e-20,
        1.0
      ],
      "translation": [
        -7.579020977020264,
        4.000336647033691,
        -0.007275482639670372
      ]
    },
    {
      "name": "ammo_02_s_030",
      "rotation": [
        1.4178033747036523e-12,
        3.334571844354393e-24,
        -7.544192380990624e-24,
        1.0
      ],
      "translation": [
        4.770886334881652e-07,
        1.3741660118103027,
        -5.89535318340495e-08
      ]
    },
    {
      "matrix": [
        100.0000000000001,
        -7.645888895769059e-21,
        -2.4158431331799957e-13,
        0.0,
        -2.4158431331799957e-13,
        -2.3812583142179793e-13,
        -100.0000000000001,
        0.0,
        7.645888320494396e-21,
        100.0,
        -2.381258314217977e-13,
        0.0,
        3.245007462737703e-05,
        -2.2887939962856766e-05,
        5.240597333866503e-08,
        1.0
      ],
      "name": "Object_40"
    },
    {
      "mesh": 0,
      "name": "Object_41",
      "skin": 0
    }
  ],
  "samplers": [
    {
      "magFilter": 9729,
      "minFilter": 9987,
      "wrapS": 10497,
      "wrapT": 10497
    }
  ],
  "scene": 0,
  "scenes": [
    {
      "name": "Sketchfab_Scene",
      "nodes": [
        0
      ]
    }
  ],
  "skins": [
    {
      "inverseBindMatrices": 4,
      "joints": [
        8,
        9,
        10,
        11,
        12,
        13,
        14,
        15,
        16,
        17,
        18,
        19,
        20,
        21,
        22,
        23,
        24,
        25,
        26,
        27,
        28,
        29,
        30,
        31,
        32,
        33,
        34,
        35,
        36,
        37,
        38,
        39
      ],
      "skeleton": 8
    }
  ],
  "textures": [
    {
      "sampler": 0,
      "source": 0
    }
  ]
}
