{
  "accessors": [
    {
      "bufferView": 2,
      "componentType": 5126,
      "count": 3049,
      "max": [
        1.9133410453796387,
        2.7649009227752686,
        6.487823009490967
      ],
      "min": [
        -1.9133410453796387,
        -1.5334709882736206,
        3.047882080078125
      ],
      "type": "VEC3"
    },
    {
      "bufferView": 2,
      "byteOffset": 36588,
      "componentType": 5126,
      "count": 3049,
      "max": [
        0.9996879696846008,
        0.9976397156715393,
        0.9999314546585083
      ],
      "min": [
        -0.9996879696846008,
        -0.9931720495223999,
        -0.9907124042510986
      ],
      "type": "VEC3"
    },
    {
      "bufferView": 1,
      "componentType": 5126,
      "count": 3049,
      "max": [
        0.9913250207901001,
        0.9951199889183044
      ],
      "min": [
        0.49893298745155334,
        0.0065100002102553844
      ],
      "type": "VEC2"
    },
    {
      "bufferView": 0,
      "componentType": 5125,
      "count": 10476,
      "type": "SCALAR"
    },
    {
      "bufferView": 2,
      "byteOffset": 73176,
      "componentType": 5126,
      "count": 3038,
      "max": [
        -1.7919600009918213,
        1.0081419944763184,
        3.0201621055603027
      ],
      "min": [
        -2.6126708984375,
        -4.360335826873779,
        -0.7993829846382141
      ],
      "type": "VEC3"
    },
    {
      "bufferView": 2,
      "byteOffset": 109632,
      "componentType": 5126,
      "count": 3038,
      "max": [
        0.9998385310173035,
        0.99927818775177,
        0.9998912811279297
      ],
      "min": [
        -0.9992489218711853,
        -0.9975353479385376,
        -0.9991358518600464
      ],
      "type": "VEC3"
    },
    {
      "bufferView": 1,
      "byteOffset": 24392,
      "componentType": 5126,
      "count": 3038,
      "max": [
        0.9913250207901001,
        0.9951199889183044
      ],
      "min": [
        0.49893298745155334,
        0.0065100002102553844
      ],
      "type": "VEC2"
    },
    {
      "bufferView": 0,
      "byteOffset": 41904,
      "componentType": 5125,
      "count": 10476,
      "type": "SCALAR"
    },
    {
      "bufferView": 2,
      "byteOffset": 146088,
      "componentType": 5126,
      "count": 3926,
      "max": [
        1.4822609424591064,
        -0.25573301315307617,
        5.710243225097656
      ],
      "min": [
        -1.4822609424591064,
        -2.527261972427368,
        3.3413619995117188
      ],
      "type": "VEC3"
    },
    {
      "bufferView": 2,
      "byteOffset": 193200,
      "componentType": 5126,
      "count": 3926,
      "max": [
        0.9996129870414734,
        0.9992974996566772,
        0.999397873878479
      ],
      "min": [
        -0.9996129870414734,
        -0.9977250695228577,
        -0.9995139241218567
      ],
      "type": "VEC3"
    },
    {
      "bufferView": 1,
      "byteOffset": 48696,
      "componentType": 5126,
      "count": 3926,
      "max": [
        0.9895709753036499,
        0.9944679737091064
      ],
      "min": [
        0.006783999968320131,
        0.015302999876439571
      ],
      "type": "VEC2"
    },
    {
      "bufferView": 0,
      "byteOffset": 83808,
      "componentType": 5125,
      "count": 15534,
      "type": "SCALAR"
    },
    {
      "bufferView": 2,
      "byteOffset": 240312,
      "componentType": 5126,
      "count": 114,
      "max": [
        0.14504900574684143,
        -1.7034109830856323,
        4.6121320724487305
      ],
      "min": [
        -0.15993499755859375,
        -1.7989909648895264,
        4.517951965332031
      ],
      "type": "VEC3"
    },
    {
      "bufferView": 2,
      "byteOffset": 241680,
      "componentType": 5126,
      "count": 114,
      "max": [
        0.9949983358383179,
        0.896511435508728,
        0.9269061088562012
      ],
      "min": [
        -0.9964960813522339,
        -0.997818648815155,
        -0.9985590577125549
      ],
      "type": "VEC3"
    },
    {
      "bufferView": 1,
      "byteOffset": 80104,
      "componentType": 5126,
      "count": 114,
      "max": [
        0.37427398562431335,
        0.3180690109729767
      ],
      "min": [
        0.18292799592018127,
        0.179298996925354
      ],
      "type": "VEC2"
    },
    {
      "bufferView": 0,
      "byteOffset": 145944,
      "componentType": 5125,
      "count": 588,
      "type": "SCALAR"
    },
    {
      "bufferView": 2,
      "byteOffset": 243048,
      "componentType": 5126,
      "count": 3675,
      "max": [
        2.951680898666382,
        1.219130039215088,
        5.896062850952148
      ],
      "min": [
        -1.465620994567871,
        -1.3897409439086914,
        0.024501999840140343
      ],
      "type": "VEC3"
    },
    {
      "bufferView": 2,
      "byteOffset": 287148,
      "componentType": 5126,
      "count": 3675,
      "max": [
        1.0,
        0.9999510049819946,
        0.9997220635414124
      ],
      "min": [
        -1.0,
        -0.9993982315063477,
        -0.9999655485153198
      ],
      "type": "VEC3"
    },
    {
      "bufferView": 1,
      "byteOffset": 81016,
      "componentType": 5126,
      "count": 3675,
      "max": [
        0.989916980266571,
        0.9898880124092102
      ],
      "min": [
        0.008419999852776527,
        0.0056870002299547195
      ],
      "type": "VEC2"
    },
    {
      "bufferView": 0,
      "byteOffset": 148296,
      "componentType": 5125,
      "count": 16560,
      "type": "SCALAR"
    },
    {
      "bufferView": 2,
      "byteOffset": 331248,
      "componentType": 5126,
      "count": 3013,
      "max": [
        2.6990110874176025,
        1.119879961013794,
        5.09492301940918
      ],
      "min": [
        -2.6990110874176025,
        -1.8935209512710571,
        -0.028449000790715218
      ],
      "type": "VEC3"
    },
    {
      "bufferView": 2,
      "byteOffset": 367404,
      "componentType": 5126,
      "count": 3013,
      "max": [
        0.9984188675880432,
        0.9993041753768921,
        0.9999303817749023
      ],
      "min": [
        -0.9984188675880432,
        -0.9992431998252869,
        -0.9990094304084778
      ],
      "type": "VEC3"
    },
    {
      "bufferView": 1,
      "byteOffset": 110416,
      "componentType": 5126,
      "count": 3013,
      "max": [
        0.9887120127677917,
        0.9914439916610718
      ],
      "min": [
        0.007898000068962574,
        0.004515000153332949
      ],
      "type": "VEC2"
    },
    {
      "bufferView": 0,
      "byteOffset": 214536,
      "componentType": 5125,
      "count": 15498,
      "type": "SCALAR"
    },
    {
      "bufferView": 2,
      "byteOffset": 403560,
      "componentType": 5126,
      "count": 443,
      "max": [
        0.12904000282287598,
        -1.465770959854126,
        4.508592128753662
      ],
      "min": [
        -0.12904000282287598,
        -1.746770977973938,
        4.207201957702637
      ],
      "type": "VEC3"
    },
    {
      "bufferView": 2,
      "byteOffset": 408876,
      "componentType": 5126,
      "count": 443,
      "max": [
        0.9986655116081238,
        0.9979047775268555,
        0.9967789649963379
      ],
      "min": [
        -0.9986655116081238,
        -0.9997919201850891,
        -0.9965410232543945
      ],
      "type": "VEC3"
    },
    {
      "bufferView": 1,
      "byteOffset": 134520,
      "componentType": 5126,
      "count": 443,
      "max": [
        0.5312049984931946,
        0.814490020275116
      ],
      "min": [
        0.018919000402092934,
        0.6542099714279175
      ],
      "type": "VEC2"
    },
    {
      "bufferView": 0,
      "byteOffset": 276528,
      "componentType": 5125,
      "count": 2370,
      "type": "SCALAR"
    },
    {
      "bufferView": 2,
      "byteOffset": 414192,
      "componentType": 5126,
      "count": 114,
      "max": [
        0.14504900574684143,
        -1.7034109830856323,
        4.6121320724487305
      ],
      "min": [
        -0.15993499755859375,
        -1.7989909648895264,
        4.517951965332031
      ],
      "type": "VEC3"
    },
    {
      "bufferView": 2,
      "byteOffset": 415560,
      "componentType": 5126,
      "count": 114,
      "max": [
        0.9949983358383179,
        0.896511435508728,
        0.9269061088562012
      ],
      "min": [
        -0.9964960813522339,
        -0.997818648815155,
        -0.9985590577125549
      ],
      "type": "VEC3"
    },
    {
      "bufferView": 1,
      "byteOffset": 138064,
      "componentType": 5126,
      "count": 114,
      "max": [
        0.37427398562431335,
        0.3180690109729767
      ],
      "min": [
        0.18292799592018127,
        0.179298996925354
      ],
      "type": "VEC2"
    },
    {
      "bufferView": 0,
      "byteOffset": 286008,
      "componentType": 5125,
      "count": 588,
      "type": "SCALAR"
    }
  ],
  "asset": {
    "extras": {
      "author": "Meta Headz (https://sketchfab.com/MetaHeadz)",
      "license": "CC-BY-NC-4.0 (http://creativecommons.org/licenses/by-nc/4.0/)",
      "source": "https://sketchfab.com/3d-models/monster-ignan-a3bd06f03c4d46e78d156b4a6749f764",
      "title": "Monster Ignan"
    },
    "generator": "Sketchfab-13.74.0",
    "version": "2.0"
  },
  "bufferViews": [
    {
      "buffer": 0,
      "byteLength": 288360,
      "name": "floatBufferViews",
      "target": 34963
    },
    {
      "buffer": 0,
      "byteLength": 138976,
      "byteOffset": 288360,
      "byteStride": 8,
      "name": "floatBufferViews",
      "target": 34962
    },
    {
      "buffer": 0,
      "byteLength": 416928,
      "byteOffset": 427336,
      "byteStride": 12,
      "name": "floatBufferViews",
      "target": 34962
    }
  ],
  "buffers": [
    {
      "byteLength": 844264,
      "uri": "scene.bin"
    }
  ],
  "extensionsUsed": [
    "KHR_materials_unlit"
  ],
  "images": [
    {
      "uri": "textures/25_weapon.a_0.1_0_0_baseColor.png"
    },
    {
      "uri": "textures/25_body_0.1_0_0_baseColor.png"
    },
    {
      "uri": "textures/25_eye_0.1_0_0_baseColor.png"
    }
  ],
  "materials": [
    {
      "doubleSided": true,
      "extensions": {
        "KHR_materials_unlit": {}
      },
      "name": "25_weapon.a_0.1_0_0",
      "pbrMetallicRoughness": {
        "baseColorTexture": {
          "index": 0
        },
        "metallicFactor": 0.0
      }
    },
    {
      "doubleSided": true,
      "extensions": {
        "KHR_materials_unlit": {}
      },
      "name": "25_-weapon.b_0.1_0_0",
      "pbrMetallicRoughness": {
        "baseColorTexture": {
          "index": 0
        },
        "metallicFactor": 0.0
      }
    },
    {
      "doubleSided": true,
      "extensions": {
        "KHR_materials_unlit": {}
      },
      "name": "25_body_0.1_0_0",
      "pbrMetallicRoughness": {
        "baseColorTexture": {
          "index": 1
        },
        "metallicFactor": 0.0
      }
    },
    {
      "doubleSided": true,
      "extensions": {
        "KHR_materials_unlit": {}
      },
      "name": "25_eye_0.1_0_0",
      "pbrMetallicRoughness": {
        "baseColorTexture": {
          "index": 2
        },
        "metallicFactor": 0.0
      }
    },
    {
      "doubleSided": true,
      "extensions": {
        "KHR_materials_unlit": {}
      },
      "name": "25_gear_0.1_0_0",
      "pbrMetallicRoughness": {
        "baseColorTexture": {
          "index": 0
        },
        "metallicFactor": 0.0
      }
    },
    {
      "doubleSided": true,
      "extensions": {
        "KHR_materials_unlit": {}
      },
      "name": "25_skin_0.1_0_0",
      "pbrMetallicRoughness": {
        "baseColorTexture": {
          "index": 1
        },
        "metallicFactor": 0.0
      }
    },
    {
      "doubleSided": true,
      "extensions": {
        "KHR_materials_unlit": {}
      },
      "name": "25_teeth_0.1_0_0",
      "pbrMetallicRoughness": {
        "baseColorTexture": {
          "index": 1
        },
        "metallicFactor": 0.0
      }
    },
    {
      "doubleSided": true,
      "extensions": {
        "KHR_materials_unlit": {}
      },
      "name": "27_eyesenv_1_0_0",
      "pbrMetallicRoughness": {
        "baseColorTexture": {
          "index": 1
        },
        "metallicFactor": 0.0
      }
    }
  ],
  "meshes": [
    {
      "name": "Object_0",
      "primitives": [
        {
          "attributes": {
            "NORMAL": 1,
            "POSITION": 0,
            "TEXCOORD_0": 2
          },
          "indices": 3,
          "material": 0,
          "mode": 4
        }
      ]
    },
    {
      "name": "Object_1",
      "primitives": [
        {
          "attributes": {
            "NORMAL": 5,
            "POSITION": 4,
            "TEXCOORD_0": 6
          },
          "indices": 7,
          "material": 1,
          "mode": 4
        }
      ]
    },
    {
      "name": "Object_2",
      "primitives": [
        {
          "attributes": {
            "NORMAL": 9,
            "POSITION": 8,
            "TEXCOORD_0": 10
          },
          "indices": 11,
          "material": 2,
          "mode": 4
        }
      ]
    },
    {
      "name": "Object_3",
      "primitives": [
        {
          "attributes": {
            "NORMAL": 13,
            "POSITION": 12,
            "TEXCOORD_0": 14
          },
          "indices": 15,
          "material": 3,
          "mode": 4
        }
      ]
    },
    {
      "name": "Object_4",
      "primitives": [
        {
          "attributes": {
            "NORMAL": 17,
            "POSITION": 16,
            "TEXCOORD_0": 18
          },
          "indices": 19,
          "material": 4,
          "mode": 4
        }
      ]
    },
    {
      "name": "Object_5",
      "primitives": [
        {
          "attributes": {
            "NORMAL": 21,
            "POSITION": 20,
            "TEXCOORD_0": 22
          },
          "indices": 23,
          "material": 5,
          "mode": 4
        }
      ]
    },
    {
      "name": "Object_6",
      "primitives": [
        {
          "attributes": {
            "NORMAL": 25,
            "POSITION": 24,
            "TEXCOORD_0": 26
          },
          "indices": 27,
          "material": 6,
          "mode": 4
        }
      ]
    },
    {
      "name": "Object_7",
      "primitives": [
        {
          "attributes": {
            "NORMAL": 29,
            "POSITION": 28,
            "TEXCOORD_0": 30
          },
          "indices": 31,
          "material": 7,
          "mode": 4
        }
      ]
    }
  ],
  "nodes": [
    {
      "children": [
        1
      ],
      "matrix": [
        1.0,
        0.0,
        0.0,
        0.0,
        0.0,
        2.220446049250313e-16,
        -1.0,
        0.0,
        0.0,
        1.0,
        2.220446049250313e-16,
        0.0,
        0.0,
        0.0,
        0.0,
        1.0
      ],
      "name": "Sketchfab_model"
    },
    {
      "children": [
        2,
        3,
        4,
        5,
        6,
        7,
        8,
        9
      ],
      "name": "1.obj.cleaner.materialmerger.gles"
    },
    {
      "mesh": 0,
      "name": "Object_2"
    },
    {
      "mesh": 1,
      "name": "Object_3"
    },
    {
      "mesh": 2,
      "name": "Object_4"
    },
    {
      "mesh": 3,
      "name": "Object_5"
    },
    {
      "mesh": 4,
      "name": "Object_6"
    },
    {
      "mesh": 5,
      "name": "Object_7"
    },
    {
      "mesh": 6,
      "name": "Object_8"
    },
    {
      "mesh": 7,
      "name": "Object_9"
    }
  ],
  "samplers": [
    {
      "magFilter": 9729,
      "minFilter": 9987,
      "wrapS": 10497,
      "wrapT": 10497
    }
  ],
  "scene": 0,
  "scenes": [
    {
      "name": "Sketchfab_Scene",
      "nodes": [
        0
      ]
    }
  ],
  "textures": [
    {
      "sampler": 0,
      "source": 0
    },
    {
      "sampler": 0,
      "source": 1
    },
    {
      "sampler": 0,
      "source": 2
    }
  ]
}
