{
  "accessors": [
    {
      "bufferView": 2,
      "componentType": 5126,
      "count": 240,
      "max": [
        8.579036712646484,
        2.93505859375,
        64.18670654296875
      ],
      "min": [
        -8.579034805297852,
        -3.893099308013916,
        32.39999771118164
      ],
      "type": "VEC3"
    },
    {
      "bufferView": 2,
      "byteOffset": 2880,
      "componentType": 5126,
      "count": 240,
      "max": [
        0.7658553123474121,
        0.9995384216308594,
        0.7035386562347412
      ],
      "min": [
        -0.8033291697502136,
        0.4852316677570343,
        -0.6424121260643005
      ],
      "type": "VEC3"
    },
    {
      "bufferView": 1,
      "componentType": 5126,
      "count": 240,
      "max": [
        0.4861629903316498,
        0.9851589798927307
      ],
      "min": [
        0.011927000246942043,
        0.10660000145435333
      ],
      "type": "VEC2"
    },
    {
      "bufferView": 0,
      "componentType": 5125,
      "count": 1254,
      "type": "SCALAR"
    },
    {
      "bufferView": 2,
      "byteOffset": 5760,
      "componentType": 5126,
      "count": 2451,
      "max": [
        9.609517097473145,
        8.798925399780273,
        40.7719612121582
      ],
      "min": [
        -9.609517097473145,
        -8.798925399780273,
        -24.683849334716797
      ],
      "type": "VEC3"
    },
    {
      "bufferView": 2,
      "byteOffset": 35172,
      "componentType": 5126,
      "count": 2451,
      "max": [
        1.0,
        1.0,
        1.0
      ],
      "min": [
        -1.0,
        -1.0,
        -0.9999999403953552
      ],
      "type": "VEC3"
    },
    {
      "bufferView": 3,
      "componentType": 5126,
      "count": 2451,
      "max": [
        0.9999181628227234,
        0.9999987483024597,
        1.0,
        1.0
      ],
      "min": [
        -1.0,
        -0.9999910593032837,
        -0.999915599822998,
        -1.0
      ],
      "type": "VEC4"
    },
    {
      "bufferView": 1,
      "byteOffset": 1920,
      "componentType": 5126,
      "count": 2451,
      "max": [
        0.9801130294799805,
        0.9864261150360107
      ],
      "min": [
        0.5134479999542236,
        0.025553999468684196
      ],
      "type": "VEC2"
    },
    {
      "bufferView": 0,
      "byteOffset": 5016,
      "componentType": 5125,
      "count": 10104,
      "type": "SCALAR"
    },
    {
      "bufferView": 2,
      "byteOffset": 64584,
      "componentType": 5126,
      "count": 63,
      "max": [
        2.1600000858306885,
        2.1600000858306885,
        33.527122497558594
      ],
      "min": [
        -2.1600000858306885,
        -2.1600000858306885,
        25.649999618530273
      ],
      "type": "VEC3"
    },
    {
      "bufferView": 2,
      "byteOffset": 65340,
      "componentType": 5126,
      "count": 63,
      "max": [
        0.9999999403953552,
        0.9999999403953552,
        0.9025201797485352
      ],
      "min": [
        -0.9999999403953552,
        -0.9999999403953552,
        -0.4155387282371521
      ],
      "type": "VEC3"
    },
    {
      "bufferView": 1,
      "byteOffset": 21528,
      "componentType": 5126,
      "count": 63,
      "max": [
        0.9878299832344055,
        0.9836211204528809
      ],
      "min": [
        0.5107190012931824,
        0.6707779765129089
      ],
      "type": "VEC2"
    },
    {
      "bufferView": 0,
      "byteOffset": 45432,
      "componentType": 5125,
      "count": 288,
      "type": "SCALAR"
    }
  ],
  "asset": {
    "extras": {
      "author": "RomarovArt (https://sketchfab.com/RomarArt)",
      "license": "CC-BY-4.0 (http://creativecommons.org/licenses/by/4.0/)",
      "source": "https://sketchfab.com/3d-models/manor-torch-09ad1f3d3256404d85f30a738e38db68",
      "title": "Manor Torch"
    },
    "generator": "Sketchfab-16.15.0",
    "version": "2.0"
  },
  "bufferViews": [
    {
      "buffer": 0,
      "byteLength": 46584,
      "name": "floatBufferViews",
      "target": 34963
    },
    {
      "buffer": 0,
      "byteLength": 22032,
      "byteOffset": 46584,
      "byteStride": 8,
      "name": "floatBufferViews",
      "target": 34962
    },
    {
      "buffer": 0,
      "byteLength": 66096,
      "byteOffset": 68616,
      "byteStride": 12,
      "name": "floatBufferViews",
      "target": 34962
    },
    {
      "buffer": 0,
      "byteLength": 39216,
      "byteOffset": 134712,
      "byteStride": 16,
      "name": "floatBufferViews",
      "target": 34962
    }
  ],
  "buffers": [
    {
      "byteLength": 173928,
      "uri": "scene.bin"
    }
  ],
  "extensionsUsed": [
    "KHR_materials_specular"
  ],
  "images": [
    {
      "uri": "textures/Flame_baseColor.png"
    },
    {
      "uri": "textures/Flame_emissive.png"
    },
    {
      "uri": "textures/Metal_Manor_Torch_baseColor.png"
    },
    {
      "uri": "textures/Metal_Manor_Torch_metallicRoughness.png"
    },
    {
      "uri": "textures/Metal_Manor_Torch_normal.png"
    }
  ],
  "materials": [
    {
      "alphaMode": "BLEND",
      "doubleSided": true,
      "emissiveFactor": [
        1.0,
        1.0,
        1.0
      ],
      "emissiveTexture": {
        "index": 1
      },
      "name": "Flame",
      "pbrMetallicRoughness": {
        "baseColorTexture": {
          "index": 0
        },
        "metallicFactor": 0.0,
        "roughnessFactor": 0.6
      }
    },
    {
      "doubleSided": true,
      "extensions": {
        "KHR_materials_specular": {
          "specularColorFactor": [
            1.0,
            1.0,
            1.0
          ],
          "specularFactor": 0.3
        }
      },
      "name": "Metal_Manor_Torch",
      "normalTexture": {
        "index": 4
      },
      "pbrMetallicRoughness": {
        "baseColorTexture": {
          "index": 2
        },
        "metallicRoughnessTexture": {
          "index": 3
        }
      }
    },
    {
      "alphaMode": "BLEND",
      "doubleSided": true,
      "emissiveFactor": [
        1.0,
        1.0,
        1.0
      ],
      "emissiveTexture": {
        "index": 1
      },
      "name": "material",
      "pbrMetallicRoughness": {
        "baseColorTexture": {
          "index": 0
        },
        "metallicFactor": 0.0,
        "roughnessFactor": 0.6
      }
    }
  ],
  "meshes": [
    {
      "name": "Object_0",
      "primitives": [
        {
          "attributes": {
            "NORMAL": 1,
            "POSITION": 0,
            "TEXCOORD_0": 2
          },
          "indices": 3,
          "material": 0,
          "mode": 4
        }
      ]
    },
    {
      "name": "Object_1",
      "primitives": [
        {
          "attributes": {
            "NORMAL": 5,
            "POSITION": 4,
            "TANGENT": 6,
            "TEXCOORD_0": 7
          },
          "indices": 8,
          "material": 1,
          "mode": 4
        }
      ]
    },
    {
      "name": "Object_2",
      "primitives": [
        {
          "attributes": {
            "NORMAL": 10,
            "POSITION": 9,
            "TEXCOORD_0": 11
          },
          "indices": 12,
          "material": 2,
          "mode": 4
        }
      ]
    }
  ],
  "nodes": [
    {
      "children": [
        1
      ],
      "matrix": [
        1.0,
        0.0,
        0.0,
        0.0,
        0.0,
        2.220446049250313e-16,
        -1.0,
        0.0,
        0.0,
        1.0,
        2.220446049250313e-16,
        0.0,
        0.0,
        0.0,
        0.0,
        1.0
      ],
      "name": "Sketchfab_model"
    },
    {
      "children": [
        2,
        3,
        4
      ],
      "name": "5eb2b9f499c241d3b4c3bf84bec1300a.obj.cleaner.materialmerger.gles"
    },
    {
      "mesh": 0,
      "name": "Object_2"
    },
    {
      "mesh": 1,
      "name": "Object_3"
    },
    {
      "mesh": 2,
      "name": "Object_4"
    }
  ],
  "samplers": [
    {
      "magFilter": 9729,
      "minFilter": 9987,
      "wrapS": 10497,
      "wrapT": 10497
    }
  ],
  "scene": 0,
  "scenes": [
    {
      "name": "Sketchfab_Scene",
      "nodes": [
        0
      ]
    }
  ],
  "textures": [
    {
      "sampler": 0,
      "source": 0
    },
    {
      "sampler": 0,
      "source": 1
    },
    {
      "sampler": 0,
      "source": 2
    },
    {
      "sampler": 0,
      "source": 3
    },
    {
      "sampler": 0,
      "source": 4
    }
  ]
}
