{
  "accessors": [
    {
      "bufferView": 2,
      "componentType": 5126,
      "count": 28637,
      "max": [
        1.1069748401641846,
        1.457069993019104,
        1.6548290252685547
      ],
      "min": [
        -1.1277257204055786,
        -2.046191453933716,
        -1.781935691833496
      ],
      "type": "VEC3"
    },
    {
      "bufferView": 2,
      "byteOffset": 343644,
      "componentType": 5126,
      "count": 28637,
      "max": [
        0.9999958872795105,
        0.9999271035194397,
        0.9999445080757141
      ],
      "min": [
        -0.9999931454658508,
        -0.9999417066574097,
        -0.9999158978462219
      ],
      "type": "VEC3"
    },
    {
      "bufferView": 3,
      "componentType": 5126,
      "count": 28637,
      "max": [
        1.0,
        1.0,
        1.0,
        1.0
      ],
      "min": [
        -0.9999448657035828,
        -0.9999997615814209,
        -1.0,
        -1.0
      ],
      "type": "VEC4"
    },
    {
      "bufferView": 1,
      "componentType": 5126,
      "count": 28637,
      "max": [
        0.9682725667953491,
        0.9980080723762512
      ],
      "min": [
        0.0019326797919347882,
        0.00199203216470778
      ],
      "type": "VEC2"
    },
    {
      "bufferView": 0,
      "componentType": 5125,
      "count": 106818,
      "type": "SCALAR"
    }
  ],
  "asset": {
    "extras": {
      "author": "zachwise (https://sketchfab.com/zachwise)",
      "license": "CC-BY-4.0 (http://creativecommons.org/licenses/by/4.0/)",
      "source": "https://sketchfab.com/3d-models/scary-face-8bf87a1abe694e7da929c0eee2a1dfab",
      "title": "Scary face"
    },
    "generator": "Sketchfab-14.77.0",
    "version": "2.0"
  },
  "bufferViews": [
    {
      "buffer": 0,
      "byteLength": 427272,
      "name": "floatBufferViews",
      "target": 34963
    },
    {
      "buffer": 0,
      "byteLength": 229096,
      "byteOffset": 427272,
      "byteStride": 8,
      "name": "floatBufferViews",
      "target": 34962
    },
    {
      "buffer": 0,
      "byteLength": 687288,
      "byteOffset": 656368,
      "byteStride": 12,
      "name": "floatBufferViews",
      "target": 34962
    },
    {
      "buffer": 0,
      "byteLength": 458192,
      "byteOffset": 1343656,
      "byteStride": 16,
      "name": "floatBufferViews",
      "target": 34962
    }
  ],
  "buffers": [
    {
      "byteLength": 1801848,
      "uri": "scene.bin"
    }
  ],
  "images": [
    {
      "uri": "textures/Face_low_baseColor.png"
    },
    {
      "uri": "textures/Face_low_metallicRoughness.png"
    },
    {
      "uri": "textures/Face_low_normal.png"
    }
  ],
  "materials": [
    {
      "doubleSided": true,
      "name": "Face_low",
      "normalTexture": {
        "index": 2
      },
      "pbrMetallicRoughness": {
        "baseColorTexture": {
          "index": 0
        },
        "metallicFactor": 0.0,
        "metallicRoughnessTexture": {
          "index": 1
        }
      }
    }
  ],
  "meshes": [
    {
      "name": "scaryface_low_Face_low_0",
      "primitives": [
        {
          "attributes": {
            "NORMAL": 1,
            "POSITION": 0,
            "TANGENT": 2,
            "TEXCOORD_0": 3
          },
          "indices": 4,
          "material": 0,
          "mode": 4
        }
      ]
    }
  ],
  "nodes": [
    {
      "children": [
        1
      ],
      "matrix": [
        1.0,
        0.0,
        0.0,
        0.0,
        0.0,
        2.220446049250313e-16,
        -1.0,
        0.0,
        0.0,
        1.0,
        2.220446049250313e-16,
        0.0,
        0.0,
        0.0,
        0.0,
        1.0
      ],
      "name": "Sketchfab_model"
    },
    {
      "children": [
        2
      ],
      "matrix": [
        0.009999999776482582,
        0.0,
        0.0,
        0.0,
        0.0,
        0.0,
        0.009999999776482582,
        0.0,
        0.0,
        -0.009999999776482582,
        0.0,
        0.0,
        0.0,
        0.0,
        0.0,
        1.0
      ],
      "name": "7a8077d415554cb2922bea115d9d3f30.fbx"
    },
    {
      "children": [
        3
      ],
      "name": "RootNode"
    },
    {
      "children": [
        4
      ],
      "name": "scaryface_low"
    },
    {
      "mesh": 0,
      "name": "scaryface_low_Face_low_0"
    }
  ],
  "samplers": [
    {
      "magFilter": 9729,
      "minFilter": 9987,
      "wrapS": 10497,
      "wrapT": 10497
    }
  ],
  "scene": 0,
  "scenes": [
    {
      "name": "Sketchfab_Scene",
      "nodes": [
        0
      ]
    }
  ],
  "textures": [
    {
      "sampler": 0,
      "source": 0
    },
    {
      "sampler": 0,
      "source": 1
    },
    {
      "sampler": 0,
      "source": 2
    }
  ]
}
